<?xml version='1.0' encoding='utf-8'?>
<svg xmlns="http://www.w3.org/2000/svg" width="295.45511mm" height="443.81345mm" viewBox="0 0 295.45511 443.81345" version="1.1" id="svg5" xml:space="preserve"><defs id="defs2" /><g id="layer1"><path style="fill:#000000" d="m 22.05210000000011 443.32915 c -6.756,-1.445 -12.741,-5.4594 -16.72,-11.2153 -3.21,-4.6431 -4.487,-8.338 -4.992,-14.4379 -0.473,-5.7126 -0.443,-387.1619 0.03,-391.7762 0.601,-5.8563 2.426,-10.6263 5.764,-15.0673 3.862,-5.137 9.686,-8.741 16.502,-10.2113 2.334,-0.5034 14.73,-0.5641 124.828,-0.6108 99.564,-0.042 122.663,0.034 124.531,0.4104 6.301,1.2705 10.749,3.681 15.346,8.3173 3.712,3.7443 5.106,5.9602 6.844,10.8863 l 1.27,3.6 v 198.7903 c 0,192.9801 -0.02,198.8624 -0.659,201.2597 -2.591,9.7094 -8.902,16.4468 -18.391,19.6322 l -2.47,0.8289 -124.707,0.061 c -109.565,0.054 -125.006,0 -127.176,-0.4672 z m 248.435,-7.0612 c 8.902,-2.6118 14.898,-8.708 17.637,-17.9325 0.599,-2.0168 0.633,-11.1511 0.737,-193.675 0.08,-142.76 0,-192.3671 -0.297,-194.7333 -1.431,-11.206 -8.038,-19.0782 -18.576,-22.1322 l -2.755,-0.7984 h -119.768 c -112.035,0 -119.936,0.039 -122.367,0.6069 -3.253,0.7599 -7.72,2.9233 -10.353,5.0147 -4.188,3.3255 -7.744,9.0616 -8.982,14.4867 -0.619,2.7139 -0.644,10.2081 -0.644,195.0862 0,184.935 0.02,192.3686 0.644,195.0109 2.484,10.5891 11.442,18.4654 22.315,19.6214 1.537,0.1633 56.134,0.2734 121.327,0.2446 l 118.533,-0.052 z m -244.723,-3.7361 c -1.062,-0.1534 -3.273,-0.9282 -4.913,-1.7218 -5.719,-2.7681 -10.476,-9.0486 -11.853,-15.6496 -0.448,-2.1476 -0.516,-27.2833 -0.522,-192.8502 -0.01,-211.6627 -0.231,-193.3409 2.435,-198.7331 3.615,-7.3103 9.397,-11.5333 16.609,-12.1307 1.65,-0.1366 56.339,-0.2226 121.532,-0.1911 107.638,0.052 118.736,0.1095 120.733,0.6246 6.936,1.789 12.401,7.3696 14.86,15.1748 0.524,1.6614 0.58,17.9822 0.666,194.0001 0.105,212.5168 0.3,194.5985 -2.172,199.8046 -2.6,5.4744 -6.508,9.1928 -11.692,11.1245 l -2.097,0.7817 -120.827,0.023 c -66.454,0.012 -121.696,-0.1029 -122.759,-0.2564 z m 243.433,-3.2992 c 5.795,-1.7181 9.906,-5.7718 12.198,-12.0285 l 1.007,-2.7492 0.1,-190.5 c 0.07,-131.0863 -0.02,-191.2527 -0.272,-192.9134 -0.529,-3.4596 -1.533,-6.063 -3.39,-8.7871 -2.786,-4.0868 -7.138,-6.9148 -11.779,-7.6549 -3.026,-0.4826 -235.391,-0.495 -239.184,-0.013 -7.387,0.9393 -13.6,6.8058 -15.715,14.8414 -0.556,2.1081 -0.604,15.2107 -0.705,191.5282 -0.07,129.4343 0.01,190.046 0.257,191.7348 0.982,6.6267 4.839,12.2755 10.266,15.0355 4.245,2.1591 -4.748,2.0128 125.69,2.0448 108.992,0.027 119.786,-0.021 121.532,-0.5387 z m -241.324,-3.5627 c -0.682,-0.2509 -1.764,-1.1928 -1.764,-1.5362 0,-0.1463 0.834,-0.2407 1.852,-0.2099 1.019,0.031 4.392,-0.163 7.497,-0.4308 6.175,-0.5325 15.944,-0.425 44.626,0.4909 25.669,0.8198 26.811,0.8882 26.811,1.6072 0,0.35 -78.073,0.4278 -79.022,0.079 z m 91.85,-0.2789 c -0.543,-1.4156 1.109,-2.1327 2.526,-1.0965 0.57,0.4171 0.6,0.5763 0.2,1.0583 -0.597,0.7192 -2.455,0.7452 -2.726,0.038 z m 6.222,0.1764 c 0,-0.1941 0.159,-0.3528 0.353,-0.3528 0.194,0 0.353,0.1587 0.353,0.3528 0,0.194 -0.159,0.3527 -0.353,0.3527 -0.194,0 -0.353,-0.1587 -0.353,-0.3527 z m -14.287,-0.5405 c 0.752,-0.5845 2.469,-0.5766 2.469,0.011 0,0.194 -0.714,0.3941 -1.587,0.4446 -1.496,0.087 -1.547,0.06 -0.882,-0.4559 z m 104.422,-0.4829 c -1.949,-0.2475 -2.763,-0.6181 -2.454,-1.1177 0.28,-0.4539 21.37,-0.4291 22.568,0.027 0.514,0.1952 0.868,0.5524 0.788,0.7937 -0.112,0.334 -2.414,0.4487 -9.642,0.4801 -5.223,0.023 -10.29,-0.06 -11.26,-0.1827 z m 25.281,-0.2004 c -0.647,-0.2926 -1.113,-0.7236 -1.035,-0.9578 0.357,-1.072 4.635,-1.136 6.622,-0.099 l 0.882,0.4602 -1.058,0.4071 c -1.78,0.6845 -4.133,0.767 -5.411,0.1896 z m -43.145,-0.518 c -0.677,-0.5553 -0.76,-0.8034 -0.445,-1.3229 0.557,-0.9164 1.987,-0.9775 2.991,-0.1279 l 0.854,0.7231 -0.833,0.7056 c -1.04,0.881 -1.516,0.8851 -2.567,0.022 z m 61.565,0.061 c -0.219,-0.1426 -0.555,-0.9736 -0.748,-1.8467 -0.404,-1.8304 -5.16,-20.0122 -6.874,-26.282 l -1.158,-4.2333 -1.85,-0.329 -1.85,-0.3289 v -2.0523 -2.0523 h 5.821 5.821 v 1.9403 c 0,1.8344 -0.05,1.9403 -0.882,1.9403 -1.118,0 -1.186,0.9688 -0.09,1.2435 1.415,0.3542 7.076,0.023 7.223,-0.4226 0.08,-0.2276 -0.229,-0.4657 -0.677,-0.5292 -0.727,-0.1031 -0.825,-0.3309 -0.92,-2.1438 l -0.105,-2.0285 h 5.838 5.839 v 2.1167 2.1166 l -1.5,0.01 c -1.694,0.01 -2.145,0.2248 -2.514,1.2186 -0.295,0.7958 -8.686,31.4694 -8.686,31.7516 0,0.2815 -2.238,0.2113 -2.69,-0.084 z m 2.838,-19.9366 c 0.678,-2.4747 1.336,-5.0524 1.463,-5.7283 l 0.231,-1.229 h -3.038 c -2.193,0 -3.039,0.1227 -3.043,0.4409 -0.01,1.056 2.675,11.4814 2.902,11.2605 0.138,-0.1346 0.806,-2.2695 1.485,-4.7441 z m -59.063,18.2663 c 0,-0.3634 0.232,-0.5364 0.618,-0.462 0.743,0.1432 0.697,0.7693 -0.07,0.9288 -0.32,0.067 -0.548,-0.1279 -0.548,-0.4668 z m -179.854,-0.9609 c -0.57,-0.57 -0.52,-1.7648 0.107,-2.5877 0.453,-0.5927 0.571,-0.6136 0.877,-0.1556 0.871,1.3019 0,3.7281 -0.984,2.7433 z m 215.908,-0.6972 c -1.011,-1.0117 0.04,-1.8175 1.318,-1.0092 0.42,0.2656 0.428,0.4157 0.05,0.8765 -0.553,0.667 -0.804,0.6914 -1.363,0.1327 z m -4.943,-0.5468 c 0.06,-0.3395 0.473,-0.6681 0.908,-0.7301 0.868,-0.1239 1.023,0.2672 0.366,0.9241 -0.632,0.632 -1.409,0.5137 -1.274,-0.194 z m -214.017,-5.0175 c -0.546,-0.6029 -0.584,-0.8636 -0.236,-1.6262 0.499,-1.0948 1.165,-0.9598 1.62,0.3281 0.253,0.7159 0.204,1.0772 -0.2,1.4814 -0.477,0.4777 -0.604,0.4581 -1.184,-0.1833 z m -2.452,-7.6794 c -0.765,-3.5931 -0.992,-9.7826 -1.152,-31.46 -0.17,-23.0336 -0.06,-28.6035 0.588,-28.6035 1.435,0 2.308,29.8297 1.556,53.1928 -0.228,7.0872 -0.518,9.0963 -0.992,6.8707 z m 3.106,0.4548 c -0.288,-0.7503 0.223,-1.46 0.611,-0.8483 0.416,0.6565 0.39,1.3605 -0.05,1.3605 -0.201,0 -0.453,-0.2305 -0.561,-0.5122 z m 7.51,-4.6618 c -0.487,-0.4871 -0.209,-2.1488 0.461,-2.7553 0.652,-0.5902 0.753,-0.5932 1.588,-0.047 0.959,0.6284 1.103,1.2751 0.525,2.3546 -0.356,0.6664 -2.059,0.9622 -2.574,0.4472 z m -6.901,-2.1657 c -0.752,-1.4049 0.404,-2.4725 1.39,-1.2841 0.38,0.4578 0.335,0.669 -0.274,1.2777 l -0.73,0.7293 z m -1.148,-4.8051 c -0.467,-1.0256 -0.135,-2.6221 0.605,-2.9061 0.675,-0.2588 1.917,0.8429 1.917,1.7001 0,0.6957 -1.174,2.062 -1.771,2.062 -0.199,0 -0.536,-0.3852 -0.751,-0.856 z m 1.346,-6.4348 c -0.406,-0.4065 -0.256,-1.7779 0.241,-2.1898 0.768,-0.6381 1.82,0.725 1.303,1.6901 -0.389,0.7275 -1.089,0.9542 -1.544,0.4997 z m 238.448,-5.3195 c -0.43,-1.3524 -2.928,-4.8395 -5.971,-8.335 -3.899,-4.4775 -4.641,-5.9632 -4.641,-9.2858 0,-2.4153 0.06,-2.5988 1.215,-3.7924 1.033,-1.0648 1.452,-1.2543 2.776,-1.2543 1.338,0 1.744,0.1883 2.851,1.3229 0.71,0.7276 1.571,1.7198 1.914,2.2049 0.618,0.8763 0.621,0.8683 0.469,-1.2748 -0.182,-2.5519 -1.143,-4.8812 -3.064,-7.4253 -0.769,-1.0191 -1.399,-1.8995 -1.399,-1.9563 0,-0.057 2.62,-0.1034 5.821,-0.1034 3.202,0 5.821,0.1 5.821,0.2214 0,0.1218 -0.26,0.437 -0.577,0.7004 -1.714,1.4226 -3.658,6.1482 -3.653,8.8811 v 1.8388 l 0.883,-1.4733 c 2.184,-3.6434 6.779,-4.0688 8.477,-0.7849 0.723,1.3987 0.634,4.1973 -0.206,6.4422 -0.523,1.3982 -1.713,3.0412 -4.394,6.0673 -2.025,2.2856 -4.22,5.1791 -4.886,6.4407 -1.004,1.9008 -1.249,2.1673 -1.44,1.5658 z m -238.203,-3.4411 c -0.252,-0.6576 0.08,-1.5875 0.567,-1.5875 0.2,0 0.364,0.4762 0.364,1.0583 0,1.1078 -0.582,1.4386 -0.931,0.5292 z m -0.127,-6.35 c 0,-0.8301 0.163,-1.2348 0.499,-1.2348 0.612,0 0.836,0.5911 0.631,1.6624 -0.252,1.318 -1.13,0.9856 -1.13,-0.4276 z m 0,-6.35 c 0,-0.4851 0.158,-0.882 0.352,-0.882 0.194,0 0.353,0.3969 0.353,0.882 0,0.485 -0.159,0.8819 -0.353,0.8819 -0.194,0 -0.352,-0.3969 -0.352,-0.8819 z m -0.333,-13.029 c -0.652,-0.7846 -0.329,-2.1405 0.509,-2.1405 0.496,0 0.737,0.2706 0.812,0.9122 0.136,1.1759 -0.711,1.9638 -1.321,1.2283 z m -3.195,-11.4891 c 0,-0.194 0.159,-0.3528 0.353,-0.3528 0.194,0 0.352,0.1588 0.352,0.3528 0,0.194 -0.158,0.3528 -0.352,0.3528 -0.194,0 -0.353,-0.1588 -0.353,-0.3528 z m 258.621,-7.461 c -0.483,-1.3852 -0.497,-4.8833 -0.02,-5.5918 0.613,-0.916 1.751,0.8353 1.751,2.6963 0,1.3956 -0.771,4.0065 -1.182,4.0065 -0.09,0 -0.334,-0.4999 -0.547,-1.111 z m -1.093,-11.3918 c 0,-1.8308 0.532,-2.3745 1.101,-1.125 0.487,1.0675 0.137,2.6917 -0.579,2.6917 -0.383,0 -0.522,-0.4182 -0.522,-1.5667 z m -4.51,0.4539 c 0.09,-0.2611 0.441,-0.5295 0.787,-0.5966 0.402,-0.078 0.572,0.049 0.471,0.3528 -0.09,0.2611 -0.441,0.5295 -0.787,0.5965 -0.402,0.078 -0.572,-0.049 -0.471,-0.3527 z m 5.076,-9.2099 c -0.121,-1.0165 -0.372,-6.5313 -0.559,-12.2551 -0.186,-5.7238 -0.526,-15.2488 -0.754,-21.1666 -0.421,-10.8863 -0.42,-10.978 0.742,-52.3875 0.355,-12.6496 0.62,-16.4085 1.103,-15.6467 0.404,0.6387 0.405,102.8606 0,103.1107 -0.172,0.1063 -0.411,-0.6384 -0.532,-1.6548 z m -260.164,-14.0376 c -0.646,-1.8515 -0.458,-4.9203 0.301,-4.9203 0.593,0 1.139,2.1481 0.917,3.6112 -0.34,2.2525 -0.74,2.6818 -1.218,1.3091 z m 0.128,-8.4512 c -0.328,-0.5303 0.175,-1.8202 0.649,-1.6647 0.647,0.2123 0.739,2.0206 0.102,2.0206 -0.292,0 -0.63,-0.1601 -0.751,-0.3559 z m -1.339,-7.2754 c -0.422,-0.4229 -0.271,-2.4312 0.236,-3.1245 0.466,-0.6371 0.497,-0.6327 0.903,0.1252 0.844,1.5769 -0.09,4.0449 -1.139,2.9993 z m 110.943,-7.1428 c 7.581,-6.0927 13.82,-15.3061 17.169,-25.3557 1.677,-5.0314 2.272,-8.8151 2.095,-13.316 -0.164,-4.1335 -0.694,-5.8048 -2.079,-6.5459 -1.414,-0.7567 -2.285,-0.1351 -3.857,2.7521 -4.175,7.6666 -8.939,12.0055 -16.215,14.7659 -2.471,0.9376 -2.984,1.0033 -7.761,0.9955 -4.835,-0.01 -5.271,-0.067 -7.94,-1.0814 -9.308,-3.5356 -15.688,-10.4893 -18.748,-20.4329 -0.886,-2.8809 -0.969,-3.6256 -0.952,-8.6213 0.01,-3.6732 0.204,-6.2891 0.584,-7.9693 2.785,-12.3403 7.941,-20.7819 23.899,-39.1266 12.313,-14.1557 20.946,-25.5176 26.569,-34.9702 3.169,-5.3264 6.968,-13.2829 8.476,-17.7493 0.684,-2.0259 1.31,-3.4546 1.391,-3.175 0.08,0.2796 0.822,2.4134 1.645,4.7417 4.633,13.0985 15.099,28.577 34.229,50.623 8.339,9.6094 10.74,12.5486 13.992,17.1248 6.187,8.7084 9.887,17.1365 11.068,25.2085 0.522,3.5715 0.241,11.0046 -0.52,13.759 -2.932,10.6125 -10.77,18.6802 -20.586,21.1907 -2.938,0.7514 -8.02,0.8997 -10.666,0.3112 -7.08,-1.5747 -14.191,-6.8233 -17.815,-13.1494 -2.848,-4.9733 -3.127,-5.3456 -4.091,-5.4592 -2.367,-0.279 -3.749,3.394 -3.359,8.9248 0.862,12.2135 8.976,27.4374 19.012,35.6716 1.596,1.3094 3.053,2.5105 3.237,2.6691 0.185,0.1587 -11.296,0.2884 -25.511,0.2884 h -25.847 z m -111.365,-0.5274 c -0.869,-0.6354 -0.568,-2.1307 0.459,-2.2762 1.041,-0.1476 1.897,0.5603 1.762,1.4571 -0.138,0.9126 -1.438,1.392 -2.221,0.8191 z m 0.362,-14.42 c -0.417,-12.2405 -0.07,-102.6413 0.394,-103.4313 0.542,-0.9171 0.681,1.0833 1.251,17.9709 0.571,16.8978 0.572,39.5844 0,66.4986 -0.461,21.8331 -0.644,26.1056 -1.121,26.1056 -0.156,0 -0.393,-3.2147 -0.527,-7.1438 z m 6.556,-0.1348 c -0.782,-0.548 -1.011,-2.0409 -0.373,-2.4352 0.584,-0.3606 1.995,0.1208 2.242,0.7646 0.289,0.7524 -0.04,1.7783 -0.647,2.0108 -0.262,0.1003 -0.811,-0.053 -1.222,-0.3402 z m 254.399,-56.3096 c -0.661,-0.8263 -0.814,-1.9458 -0.393,-2.8699 0.526,-1.1546 0.791,-1.1595 1.308,-0.024 0.877,1.9231 0.149,4.2236 -0.915,2.8938 z m -261.152,-56.5444 c -0.761,-0.9179 -0.854,-3.8815 -0.176,-5.6565 0.717,-1.8761 1.254,-1.8608 1.831,0.052 1.116,3.6979 -0.03,7.5665 -1.655,5.6044 z m 261.623,-10.2408 c -0.706,-0.7059 -0.691,-1.0621 0.117,-2.8002 l 0.656,-1.4112 0.567,1.3061 c 0.859,1.9768 -0.128,4.117 -1.34,2.9053 z m -0.116,-6.5926 c 0.08,-0.2425 0.358,-0.441 0.617,-0.441 0.259,0 0.537,0.1985 0.617,0.441 0.09,0.2623 -0.162,0.441 -0.617,0.441 -0.455,0 -0.705,-0.1787 -0.617,-0.441 z m -0.194,-2.957 c -0.364,-0.3637 -0.301,-1.7063 0.132,-2.8409 0.37,-0.9703 0.391,-0.9769 0.897,-0.2875 1.01,1.3736 0.07,4.228 -1.029,3.1284 z m -1.504,-17.44 c -0.603,-0.6659 -0.614,-0.8124 -0.132,-1.6757 0.933,-1.6699 3.505,-1.1991 3.505,0.6414 0,1.65 -2.204,2.3258 -3.373,1.0343 z m -244.375,-8.9282 c 2.25,-2.4902 4.307,-8.1458 4.326,-11.891 0.01,-1.9359 -0.367,-1.9064 -1.505,0.118 -2.694,4.7937 -6.343,6.1549 -9.463,3.5298 -1.456,-1.2251 -2.079,-2.7846 -2.079,-5.2034 0,-3.8821 1.719,-7.204 6.583,-12.722 3.567,-4.0463 4.925,-6.0315 6.318,-9.2351 l 1.118,-2.5718 1.416,2.9146 c 1.546,3.1835 2.995,5.1747 7.382,10.1448 3.397,3.8477 5.345,7.3955 5.642,10.2728 0.483,4.672 -2.413,8.2513 -6.112,7.5572 -1.554,-0.2914 -3.971,-2.471 -5.099,-4.5986 -0.464,-0.8734 -0.962,-1.588 -1.108,-1.588 -0.423,0 -0.296,2.7945 0.242,5.3347 0.569,2.6852 2.184,6.0844 3.724,7.8375 0.583,0.6646 1.06,1.2668 1.06,1.3382 0,0.071 -3.078,0.1298 -6.841,0.1298 h -6.84 z m 245.517,-32.6899 c -0.121,-0.6712 -0.571,-5.8241 -0.999,-11.4509 -0.853,-11.1939 -1.17,-34.433 -0.474,-34.7154 0.194,-0.079 0.71,0.4953 1.147,1.2756 1.32,2.358 1.594,8.1334 1.312,27.6113 -0.236,16.2785 -0.459,20.1919 -0.986,17.2794 z m -256.002,-11.2745 v -2.4694 h 1.927 1.926 l 0.348,-1.323 c 0.192,-0.7276 1.96,-7.4348 3.931,-14.9048 1.97,-7.4701 4.096,-15.5663 4.723,-17.9917 l 1.141,-4.4097 1.802,-0.106 1.802,-0.1059 0.369,1.3407 c 0.627,2.2814 3.727,14.2467 6.552,25.2906 1.484,5.7995 2.84,10.9191 3.014,11.3771 0.285,0.7479 0.533,0.8327 2.442,0.8327 h 2.126 v 2.477 2.4771 l -6.791,-0.096 -6.791,-0.096 -0.104,-2.3813 -0.105,-2.3812 h 1.625 1.626 l -0.243,-1.6757 c -0.134,-0.9217 -0.312,-1.7948 -0.395,-1.9403 -0.08,-0.1455 -2.35,-0.2646 -5.036,-0.2646 h -4.884 l -0.387,1.111 c -0.609,1.747 -0.497,2.4161 0.406,2.4216 2.185,0.013 2.382,0.2498 2.382,2.8585 v 2.4283 h -6.703 -6.703 z m 17.991,-11.9944 h 1.312 l -0.98,-3.616 c -0.539,-1.9888 -1.335,-5.1241 -1.768,-6.9674 -0.434,-1.8432 -0.837,-3.1926 -0.896,-2.9986 -0.62,2.0375 -3.312,12.609 -3.312,13.0068 0,0.6866 0.879,0.9167 2.783,0.7283 0.852,-0.084 2.139,-0.1531 2.861,-0.1531 z m 232.481,6.8497 c 0,-1.5939 0.833,-1.4725 0.993,0.1448 0.08,0.8271 -0.03,1.1193 -0.441,1.1193 -0.398,0 -0.552,-0.3528 -0.552,-1.2641 z m -5.221,-6.5675 c -0.46,-0.4597 -0.563,-1.4362 -0.191,-1.8079 0.401,-0.4015 1.179,0.5168 1.179,1.3925 0,0.9228 -0.338,1.065 -0.988,0.4154 z m 4.155,-0.8209 c -0.391,-0.4709 -0.398,-0.8712 -0.04,-2.2227 0.545,-2.0584 1.507,-4.0399 2.041,-4.2045 0.254,-0.078 0.576,0.8248 0.859,2.4074 0.386,2.1622 0.377,2.6676 -0.06,3.4572 -0.614,1.0989 -2.102,1.3983 -2.796,0.5626 z m -4.722,-4.6202 c -0.346,-0.8994 0.682,-1.8222 1.473,-1.3231 0.336,0.2119 0.611,0.6854 0.611,1.0524 0,0.9075 -1.753,1.1352 -2.084,0.2707 z m 4.8,-6.2006 c -0.619,-0.619 -0.541,-4.5803 0.106,-5.4183 0.513,-0.6634 0.545,-0.6644 1.033,-0.035 0.825,1.0641 1.017,3.1679 0.42,4.5969 -0.569,1.3623 -0.881,1.5336 -1.559,0.8562 z m -4.84,-6.0641 c -0.786,-1.2007 -0.552,-2.1308 0.57,-2.2616 1.141,-0.1332 1.815,0.6496 1.668,1.9367 -0.156,1.3574 -1.439,1.5437 -2.238,0.3249 z m 5.581,-9.869 c -0.231,-0.3937 -3.944,-0.5202 -20.39,-0.6945 -11.06,-0.1172 -27.173,-0.3696 -35.807,-0.5609 -23.95,-0.5305 -27.271,-0.7429 -26.331,-1.6836 0.156,-0.156 18.17,-0.2837 40.03,-0.2837 37.451,0 39.842,0.037 41.395,0.6359 1.962,0.7575 2.547,1.3703 2.238,2.3458 -0.265,0.8343 -0.729,0.9329 -1.135,0.241 z m -96.234,-1.4121 c -0.686,-0.5024 -0.68,-0.5237 0.265,-0.9543 0.76,-0.3464 1.166,-0.3494 1.902,-0.014 1.027,0.468 0.819,0.9202 -0.583,1.2652 -0.532,0.1309 -1.161,0.013 -1.584,-0.2968 z" id="path10" /></g></svg>